<svg id="Layer_1" data-name="Layer 1" xmlns="http://www.w3.org/2000/svg" viewBox="0 0 48.83333 26.76144"><title>3d pie</title><path d="M18.01145,29.62694V34s6.65522,6.625,21.03022,5.66667l.16552-3.10772L38.75,35.4375Z" transform="translate(-17.5 -13)" style="fill:#9e9d9e"/><polygon points="0 9.917 0.188 15.25 24.25 13.375 24.75 13.25 24.375 9.125 0 9.917" style="fill:#9e9d9e"/><path d="M42.18242,32.83275l.02591,4.87559A61.75634,61.75634,0,0,0,54.5,36.16667a31.23928,31.23928,0,0,0,11.09434-4.777.92048.92048,0,0,0,.39028-.72505l.29663-8.32086Z" transform="translate(-17.5 -13)" style="fill:#9e9d9e"/><path d="M39.49166,27.60423l-.28447,8.95472a51.57531,51.57531,0,0,1-7.578-.58792c-6.84915-1.06168-11.96194-3.44357-13.61776-6.34408Z" transform="translate(-17.5 -13)" style="fill:#c8c8c8"/><path d="M41.91667,22.91667,17.88888,24.67949A4.31125,4.31125,0,0,1,17.5,22.91667C17.5,17.47654,28.52208,13,41.91667,13s24.41667,4.47654,24.41667,9.91667c0,5.39935-10.8575,9.85731-24.15091,9.91608Z" transform="translate(-17.5 -13)" style="fill:#c8c8c8"/><path d="M18.01145,29.62694" transform="translate(-17.5 -13)" style="fill:#3f4b54"/></svg>