<svg id="Layer_1" data-name="Layer 1" xmlns="http://www.w3.org/2000/svg" viewBox="0 0 48.83333 26.76144"><title>map-hover</title><path d="M24.89038,23.22535a.32789.32789,0,0,1-.0824.06179.03781.03781,0,0,0,.01031-.03086c0-.04123.03093-.06179.06179-.103C24.911,23.12239,24.92131,23.17387,24.89038,23.22535Z" style="fill:#859cb7"/><path d="M13.24291,24.38907c.04117.02062.42227.52523.42227.52523l-.06179.18536a.55406.55406,0,0,0-.1545.04117c-.05148.04123-.381-.04117-.381-.04117s.05148-.32956-.06179-.44282c-.11327-.103-.09271-.27808-.2266-.33986-.13388-.0721-.21623-.206-.32956-.19567s-.39128-.206-.44282-.28832-.13388-.19567-.13388-.19567-.08234-.09271-.26771,0c-.18543.103-.37079-.13388-.37079-.13388s.03093-.16481-.15444-.05148a.4495.4495,0,0,1-.28838.09265c-.09265.02062-.0721.09271-.22653.17505-.16481.0824-.25746.17512-.32956-.02055s-.17505-.35017-.2266-.13388a1.99708,1.99708,0,0,1-.13388.40165c-.072.13382-.06179.103-.30894.26771-.25746.17512-.59726.65911-.55609.52523a6.37325,6.37325,0,0,1,.31925-.67967.85724.85724,0,0,1-.24715-.0721,2.95977,2.95977,0,0,0-.381-.1545c-.103-.06179-.37079-.26777-.37079-.26777l-.17505-.08234L7.929,23.0606l.11327-.29869.21629-.14413.26771-.05154.0721-.19567-.3398-.04117-.39134-.206-.17512-.17505.1545-.2266.21629-.04117.22653.17505.27808.03093.11327-.1545L8.31,21.4643l-.1545-.3398-.26777-.17512.04123-.17505.75176-.28832.47375-.11333.44282-.11327.7209.03093.381.02055.63849.11333.4943.17505.13388.11327v.35017L11.935,22.52507l.03093.82386s.02062.206.0824.25746c.05148.04123.47369.31925.47369.31925l.37079-.16475.15444.18536S13.19143,24.37876,13.24291,24.38907Z" style="fill:#859cb7"/><path d="M42.73749,3.30831l-.31925.278-.2266.26777-.29863.25746-.28838.25746-.47369.85478-.09271.87534.11333.57671.26771.1545.18536.23684-.22653.24715-.73121.381-.60757.57671-.35017.54584s.1545.55609.17512.60757a5.37446,5.37446,0,0,1-.27808.81361l-.29869.0721a1.78446,1.78446,0,0,1,.25746.54578,3.60515,3.60515,0,0,1-.01025.51492c0,.05148-.16481.86509-.16481.86509l-.19567-.66942-.43251-.50461.06179.29863-.19567.36048.0824.23684.14419.45313.03086.42227.35017-.12364.20592.06179-.01025.412s-.43258.103-.46344.103c-.04123-.01025.02055.25746-.04123.37079s.18543.01031.26777.01031a3.09306,3.09306,0,0,1,.33986.05148l.33986-.02062-.06179.28838-.52523.19567-.09271.4119.28838.18536-.66942.2266-.05148.57671-.587.17505-.53554,1.2152-.59726.52523-.25746.19567.05148.29863-.29863,1.35939.21623.793.55615.71059.31925.16475.64874,2.08029.103.74145-.25746.39134h-.39134l-.4943-.484-.74152-.94743-.32956-.381-.25746-.52523a1.73957,1.73957,0,0,1,.06179-.90626s-.44282-.30894-.57671-.29869c-.14413.02062-.29863-.21623-.39134-.22653s-.39134-.03093-.39134-.03093-.30894-.103-.36042.0721a.39165.39165,0,0,1-.22653.2266s-.24721-.26777-.39134-.2266a2.41583,2.41583,0,0,1-.6488-.13388l-.81361-.03086-.5664.25746-.47369.01031-.67973.103-.02062.16481-.01025.29863a6.64755,6.64755,0,0,1,.4119.57671c.103.17505-.206,0-.206,0l-.35011-.05148-.33986.13388-.30894.02055s-.40165-.20592-.45313-.23684c-.05148-.02062-.42227-.22653-.42227-.22653l-.23684.04117-.39134.06179-.4943-.0824-.27808-.09265c-.05148.01031-.26777.11327-.3398.13388-.06185.01025-.0824.278-.18543.32949-.09265.04123-.23684-.03086-.26771-.01025,0,.01025.01025.02055.02055.03086.02062.02062-.02055.04123-.06179.06179-.01031.09271-.04117.21629-.0824.23691-.072.04117-.05148,0-.04117-.02062,0-.02062-.01031-.11327.02062-.13388a.61785.61785,0,0,0,.04117-.06179c-.03086.01031-.05148.02062-.05148.03086-.02062.02062,0,.12358-.06179.1545-.05148.03093-.01031.06179-.05148.14419-.05148.09265-.04123-.32956-.0721-.29869-.04123.03093-.0824.46344-.13388.47375-.04117.01031-.05148.02062-.02062.04117s-.03086.05154-.11327.103c-.09271.04117-.17505.103-.19567.103a.1235.1235,0,0,1,.05148-.0824c.04123-.01025.0721-.05148.02062-.04117-.04117.01031-.0721-.03086-.11327-.04117-.04123-.02062-.06179-.02062-.09271.03086-.03086.04123-.06179.02062-.12358-.01031-.05148-.02055-.02062-.072-.06179-.06179-.04117.02062-.01031.0721.03093.103.03086.04117,0,.06179.072.0824.06179.02055.03093.05148.05154.08234-.04123-.01031-.12358-.04117-.1545-.02055l-.03093.03086v.01031c.02062,0,.04123.01031.06185.01031a.07784.07784,0,0,1-.0721.04117h-.02062a2.11791,2.11791,0,0,1-.1545.1545c-.03086.03086-.03086.02055-.0721-.01031s-.08234.01031-.12358.01031c-.03086,0-.04117.05148-.03086.09265a.26563.26563,0,0,0-.11327.0721c-.03093.05148-.02062.05148-.05154.05148s-.03086-.04117-.05148-.06179a.40913.40913,0,0,0-.11327,0c-.05148.01031-.02062.02062-.02062.06179s.05154.03093.103.06179c.05148.04123.03086.03093.03086.09271v.02062a.925.925,0,0,0-.19567.12358v.03086c.02062.02062.05148.0824.04123.103-.03093.02055-.04123.01025-.0824-.01031-.04117-.01031-.12358-.02062-.14419,0-.03086.02055,0,.03086.04123.06179.04117.04117.05148,0,.103,0a.07576.07576,0,0,1,.0824.04117.19768.19768,0,0,1,.03086.0824.50541.50541,0,0,1,.03093.1545.85573.85573,0,0,0,.0721.24715c.04117.12358.06179.24715.08234.32956s.01031.08234,0,.11327c-.02055.03086-.03086-.0721-.03086-.11327a.56622.56622,0,0,0-.103-.25746,1.3295,1.3295,0,0,1-.06179-.37079.10036.10036,0,0,0-.04117-.09265.07354.07354,0,0,1-.05148.09265c-.04123.02062-.04123.03093-.03093.0721.01031.05148.04123.04123.03093.0824s.03086.06179.0721.12358c.04117.05148.01025.11327.01025.21629s.06185.0721.0721.16475a.27306.27306,0,0,0,.0721.14419c.04123.06179-.02055.0721,0,.103.03093.03093.02062-.02055.04123-.04117.01025-.02062.03086-.05148.05148.05148v.01031s-.03093-.02062-.04123,0a1.03172,1.03172,0,0,0,.05154.26777s.03086.04117-.03093.06179a.32429.32429,0,0,1-.22653-.03093.43481.43481,0,0,0-.14419-.12358c-.0721-.04117-.17505-.13388-.23684-.0824a.18505.18505,0,0,1-.16481.04123c-.09265-.01031-.103-.23684-.206-.29869s-.12358-.103-.20592-.09265c-.09271.01031-.06185-.01031-.16481-.06179a1.32255,1.32255,0,0,0-.206-.0824c-.04117,0-.02055-.06179-.0721-.09265s.02062-.11333-.02055-.1545c-.05148-.05148-.13388-.22653-.206-.29863-.06179-.0721.103-.1545,0-.206s-.0721-.09271-.06179-.16481c.01031-.06179.04117-.06179,0-.103a.91127.91127,0,0,0-.26777-.04117c-.0721-.01031-.06179-.0824-.11327-.14419a1.36355,1.36355,0,0,0-.32956-.36048c-.0824-.04117.02062-.072-.04117-.13382-.06179-.0721.12358-.17512-.0824-.46344s-.09271-.31925-.18536-.37073c-.09271-.06185-.16481.15444-.23691.08234-.072-.06179-.23684-.28832-.26771-.24715a.1103.1103,0,0,1-.14419.01031c-.04123-.03093-.05148-.06179-.12358-.04117a.2747.2747,0,0,1-.12358.03086c-.05154,0-.06179-.0824-.1545-.0824-.09271-.01025-.09271.06179-.24715.0824s-.11327.11327-.13388.16481a.62116.62116,0,0,0-.09271.18536c-.02055.08234-.02055.18536-.103.23684-.09271.05148-.13388-.14419-.24715-.21629s-.36048.02062-.39134.03093c-.04117.02062-.14419-.12358-.21629-.12358a.34345.34345,0,0,1-.22653-.11327c-.05148-.06185-.01031-.0824-.09271-.103-.08234-.03086-.13388-.04117-.15444-.12358a1.71432,1.71432,0,0,1-.103-.55609c.03093-.09271.02062.06179-.103-.09271-.13388-.14419-.09271-.11327-.103-.18536,0-.0721.04123-.0824-.08234-.16475a1.84345,1.84345,0,0,1-.24715-.21629c-.0824-.0721-.17512-.02062-.206-.14419-.03093-.11327.08234-.22653,0-.30894a1.14169,1.14169,0,0,0-.23691-.19567c-.11327-.06179-.12358.02062-.13382-.11327v-.03093c-.01031,0-.03093.21629-.04123.21629h-.06179a.53546.53546,0,0,1-.0824-.206l-1.04008.04117-.26777.23691-.33986.17505-.86509-.05148-1.23576-.1545-1.29761-.70028-1.00928-.587-.17505-.35011s-.6488-.06179-.73114-.06179a5.74167,5.74167,0,0,1-.66942-.21629L9.56638,17.726l-.11327-.32956-.33986-.48406L8.66012,16.655l-.62819-.53554-.45313-.35011-.13388-.27808.03093-.36042-.0824-.52523-.206-.55609-.206-.42227.13388-.25746-.21623-.17505-.13388-.55609s.14419-.02062.13388-.0824.16475-.24715.16475-.24715l.14419-.26777s-.36048-.04123-.39134-.05148c-.04117-.01031-.1545-.13388-.1545-.13388l-.28832-.50461-.12358-.35017.0721-.63849-.12358-.35017-.103-.32956.09271-.278.11327-.35017.05148-.23684.28838-.42227-.02062-.35011.09271-.48406.21623-.896.49437-.84447.04117-.31925.53554-1.277.12358-.4943-.0824-.70028.0824-.73121.67967.412v.5664l.05148.412.40165-.46344L9.56638,2.093l.381.04123,1.26674.26777,1.43143.36042,1.04015.28838,1.22551.12358,1.79191.22653,1.04015.206.46344-.05148,2.03906.278.95774-.17505,2.02881.13388.6488-.18536,1.12249-.0824.793-.47369s.103.23684.06179.32949c-.03086.09271.0721.27808.04117.32956-.03086.06179.26777.17512.309.17512A.98677.98677,0,0,0,26.363,3.8541H26.672l.81361.26777,1.02984.21629.0824.14413-.39134.31925-.67973.412-.14419.45313a.51418.51418,0,0,0,.24721-.01031.74256.74256,0,0,1,.35011-.05148c.04123,0,.06179.12358.06179.12358s.16481.0721.24715.02062c.0824-.04123.103.03086.103.03086s.42221.1545.45313.1545c.04117,0,.45313.14413.45313.14413l.62819.23691.19567.15444v.24721s-.14419.25746-.16481.29863a.6568.6568,0,0,0-.03086.28832c.01031.05154.18536.04123.18536.04123s.12358-.11327.26777-.25746c.13388-.14419.0824.17505.0824.17505l-.17512.65911v.9886l.26777.83423.25746.19561.29869-.13382.278-.32956.09271-.33986-.24715-.47375-.26777-.69.11327-.47375.1545-.587.13388-.23691.25746-.01031.08234-.30894.05148-.21623h.36048l.67967.09265.1545.43251s-.1545.51492-.1545.54584a2.03266,2.03266,0,0,0,.103.27808l.14413-.19567.21629-.04123.2266.206.15444.65911-.23684.47369-.28838.51492.40165.29869.7209-.03093,1.2873-.99891.16475.23684.05154-.39134V7.59241l.19561-.48406h.73121l.587-.29863s0-.22653.04117-.67967c0,0,.03093-.25746.05154-.44282a1.6989,1.6989,0,0,1,.18536-.46344l.40159-.25746.39134-.1545.33986-.14419.23684.02062.04123.35017.04117.06179.02062.11327.0824.0721-.103-.18536-.0824-.412.29869-.19567.63849-.22653.35011-.19567.0721-.21629.27808-.412.0721-.54578.0721-.50461.103-.54584.103-.14419.29863.05154.12358-.0824.28832-.06179.32956.19567.24721.62819Z" style="fill:#859cb7"/><path d="M14.55083,22.43235l.103.18543c0,.01025-.01031.05148-.14419.09265-.16475.05148-.16475.06179-.23684-.02062a.81848.81848,0,0,1-.09265-.23684l.12358-.02062A.98765.98765,0,0,0,14.55083,22.43235Z" style="fill:#859cb7"/><path d="M24.7565,23.31806a.22334.22334,0,0,0,.05148-.03093.087.087,0,0,1-.02055.06179C24.77711,23.35923,24.76681,23.36954,24.7565,23.31806Z" style="fill:#859cb7"/><path d="M18.23767,23.92563c-.03093.06179-.13388.206-.26777.18536s-.16481.04123-.206.02062c-.04117-.01031-.16481-.17505-.2266-.1545-.06179.03093-.15444-.01025-.23684-.08234a.30949.30949,0,0,1-.0721-.18536l.12358-.13388a2.66067,2.66067,0,0,0,.49437.06179l.28832.12358S18.27884,23.87415,18.23767,23.92563Z" style="fill:#859cb7"/><polygon points="16.065 22.978 16.353 23.236 16.199 23.328 15.89 23.297 15.776 23.184 16.065 22.978" style="fill:#859cb7"/></svg>