<svg id="Layer_1" data-name="Layer 1" xmlns="http://www.w3.org/2000/svg" viewBox="0 0 82.81909 51.91797"><title>Column_Line_hover</title><rect x="8.96411" width="13.20996" height="49.41797" style="fill:#c8c8c8"/><rect x="26.38078" y="14.47754" width="13.20996" height="34.94043" style="fill:#c8c8c8"/><rect x="43.79744" y="0.83008" width="13.20996" height="48.58789" style="fill:#c8c8c8"/><rect x="61.21411" y="9.32617" width="13.20996" height="40.0918" style="fill:#c8c8c8"/><line x1="14.68327" y1="3.58464" x2="33.84993" y2="21.2513" style="fill:none;stroke:#828282;stroke-miterlimit:10;stroke-width:1.5px"/><line x1="50.34993" y1="5.2513" x2="33.84993" y2="21.2513" style="fill:none;stroke:#828282;stroke-miterlimit:10;stroke-width:1.5px"/><line x1="68.1416" y1="15.48047" x2="50.34993" y2="5.2513" style="fill:none;stroke:#828282;stroke-miterlimit:10;stroke-width:1.5px"/><circle cx="14.8291" cy="3.73047" r="1.9375" style="fill:#fff;stroke:#828282;stroke-miterlimit:10;stroke-width:1.5px"/><circle cx="33.73975" cy="21.146" r="1.9375" style="fill:#fff;stroke:#828282;stroke-miterlimit:10;stroke-width:1.5px"/><circle cx="50.22412" cy="5.46143" r="1.9375" style="fill:#fff;stroke:#828282;stroke-miterlimit:10;stroke-width:1.5px"/><circle cx="68.02686" cy="15.3877" r="1.9375" style="fill:#fff;stroke:#828282;stroke-miterlimit:10;stroke-width:1.5px"/><polygon points="5.433 49.626 5.433 40.543 5.433 40.543 15.1 35.376 32.433 43.126 50.1 29.543 67.85 43.293 77.35 38.876 77.35 49.626 5.433 49.626" style="fill:#eee"/><line y1="51.41797" x2="82.81909" y2="51.41797" style="fill:none;stroke:#a8a8a8;stroke-miterlimit:10"/></svg>