<?xml version="1.0" encoding="utf-8"?>
<!-- Generator: Adobe Illustrator 21.1.0, SVG Export Plug-In . SVG Version: 6.00 Build 0)  -->
<svg version="1.1" id="Layer_1" xmlns="http://www.w3.org/2000/svg" xmlns:xlink="http://www.w3.org/1999/xlink" x="0px" y="0px"
	 viewBox="0 0 82.8 51.8" style="enable-background:new 0 0 82.8 51.8;" xml:space="preserve">
<style type="text/css">
	.st0{fill:#869CB7;}
	.st1{fill:none;stroke:#515A69;stroke-width:1.5;stroke-miterlimit:10;}
	.st2{fill:#FFFFFF;stroke:#515A69;stroke-width:1.5;stroke-miterlimit:10;}
	.st3{opacity:0.91;fill:#DEEBF9;enable-background:new    ;}
	.st4{fill:none;stroke:#000000;stroke-width:0.75;stroke-miterlimit:10;}
</style>
<title>Column_Line</title>
<rect x="9" class="st0" width="13.2" height="49.4"/>
<rect x="26.4" y="14.5" class="st0" width="13.2" height="34.9"/>
<rect x="43.8" y="0.8" class="st0" width="13.2" height="48.6"/>
<rect x="61.2" y="9.3" class="st0" width="13.2" height="40.1"/>
<line class="st1" x1="14.7" y1="3.6" x2="33.8" y2="21.3"/>
<line class="st1" x1="50.3" y1="5.3" x2="33.8" y2="21.3"/>
<line class="st1" x1="68.1" y1="15.5" x2="50.3" y2="5.3"/>
<circle class="st2" cx="14.8" cy="3.7" r="1.9"/>
<circle class="st2" cx="33.7" cy="21.1" r="1.9"/>
<circle class="st2" cx="50.2" cy="5.5" r="1.9"/>
<circle class="st2" cx="68" cy="15.4" r="1.9"/>
<polygon class="st3" points="5.4,49.6 5.4,40.5 5.4,40.5 15.1,35.4 32.4,43.1 50.1,29.5 67.8,43.3 77.3,38.9 77.3,49.6 "/>
<line class="st4" x1="0" y1="51.4" x2="82.8" y2="51.4"/>
</svg>
